<svg xmlns="http://www.w3.org/2000/svg" version="1.1" width="1440" height="560" preserveAspectRatio="none" viewBox="0 0 1440 560"><g mask="url(&quot;#SvgjsMask1006&quot;)" fill="none"><path d="M269.62 619.17C397.01 614.38 499.37 409.67 734.36 409.28 969.34 408.89 966.72 479.28 1199.09 479.28 1431.46 479.28 1546.34 409.48 1663.83 409.28" stroke="rgba(141, 149, 158, 0.58)" stroke-width="2"></path><path d="M661.97 577.05C820.93 523.51 854.27 66.16 1086.69 57.67 1319.11 49.18 1399.62 195.88 1511.41 197.67" stroke="rgba(141, 149, 158, 0.58)" stroke-width="2"></path><path d="M718.43 657.49C876.71 619.08 937.29 195.14 1174.75 192.52 1412.21 189.9 1506.43 389.7 1631.07 394.12" stroke="rgba(141, 149, 158, 0.58)" stroke-width="2"></path><path d="M544.99 645.13C682.79 643.59 789.51 499.22 1074.39 491.52 1359.27 483.82 1455.55 230.27 1603.79 222.72" stroke="rgba(141, 149, 158, 0.58)" stroke-width="2"></path><path d="M572.45 647.35C707.55 585.8 649.68 157.26 905.83 155.92 1161.98 154.58 1392.93 419.73 1572.58 424.72" stroke="rgba(141, 149, 158, 0.58)" stroke-width="2"></path></g><defs><mask id="SvgjsMask1006"><rect width="1440" height="560" fill="#ffffff"></rect></mask></defs></svg>