<svg width="20" height="20" viewBox="0 0 20 20">
    <g transform="matrix(0.625,0,0,0.625,0,0)">
        <rect id="mastodon" x="0" y="0" width="20" height="20" style="fill:none;"/>
        <g id="mastodon1">
            <g transform="matrix(1.30163,0,0,1.30163,-4.82546,-4.84682)">
                <path d="M15.938,4.031C12.917,4.044 9.918,4.427 8.357,5.146C8.357,5.146 5,6.675 5,11.881C5,18.078 4.996,25.86 10.563,27.365C12.695,27.938 14.528,28.062 16.002,27.977C18.677,27.826 20,27.006 20,27.006L19.91,25.029C19.91,25.029 18.176,25.64 16.029,25.57C13.902,25.495 11.662,25.336 11.313,22.68C11.281,22.433 11.265,22.183 11.266,21.934C15.773,23.053 19.616,22.421 20.674,22.293C23.628,21.934 26.199,20.082 26.527,18.389C27.041,15.721 26.998,11.881 26.998,11.881C26.998,6.675 23.646,5.146 23.646,5.146C22.001,4.378 18.958,4.019 15.938,4.031ZM12.705,8.002C13.74,8.03 14.763,8.493 15.393,9.471L16.002,10.506L16.609,9.471C17.874,7.504 20.71,7.626 22.059,9.148C23.303,10.596 23.025,11.531 23.025,18L23.025,18.002L20.578,18.002L20.578,12.373C20.578,9.738 17.219,9.636 17.219,12.738L17.219,16L14.787,16L14.787,12.738C14.787,9.636 11.43,9.736 11.43,12.371L11.43,18L8.977,18C8.977,11.526 8.704,10.585 9.943,9.148C10.623,8.382 11.67,7.974 12.705,8.002Z" style="fill-rule:nonzero;"/>
            </g>
        </g>
    </g>
</svg>
