<svg viewBox="0 0 738 141" version="1.1" xmlns="http://www.w3.org/2000/svg" xmlns:xlink="http://www.w3.org/1999/xlink" xml:space="preserve" style="fill-rule:evenodd;clip-rule:evenodd;stroke-linejoin:round;stroke-miterlimit:2;">
    <g transform="matrix(1,0,0,1,-275.207,-229.932)">
        <g transform="matrix(1.61,0,0,1,0,0)">
            <g transform="matrix(0.630734,0,0,1.01548,321.745,-927.554)">
                <path d="M-72.999,1162.06L-32.112,1162.06L-74.063,1221.27L-74.063,1230.24L-9.424,1230.24L-9.424,1215.48L-52.32,1215.48L-9.424,1154.74L-9.424,1147.42L-72.999,1147.42L-72.999,1162.06Z" style="fill-rule:nonzero;"/>
            </g>
        </g>
        <g transform="matrix(1.61,0,0,1,0,0)">
            <g transform="matrix(0.621118,0,0,1,-881.404,-1482.47)">
                <path d="M2012.11,1734.82L2012.11,1720.09C2025.42,1720.09 2038.74,1720.21 2052.06,1720.09C2071.86,1720.21 2082.29,1733.4 2082.29,1747.98C2082.29,1759.56 2077.02,1771.2 2061.07,1774.44L2086.49,1803.12L2086.49,1804.2L2067.67,1804.2L2043.18,1776.12L2027.93,1776.12L2027.93,1804.2L2012.11,1804.2L2012.11,1761.86L2052.06,1761.85C2062.15,1761.85 2066.47,1755.1 2066.47,1748.35C2066.47,1741.59 2062.03,1734.84 2052.06,1734.84L2012.11,1734.82Z" style="fill-rule:nonzero;"/>
            </g>
        </g>
        <g transform="matrix(1.61,0,0,1,0,0)">
            <g transform="matrix(0.630734,0,0,1.01548,321.745,-927.554)">
                <path d="M395.672,1198.77L355.128,1147.42L342.496,1147.42L342.496,1230.24L358.079,1230.24L358.079,1174.39L401.575,1230.24L411.256,1230.24L411.256,1147.42L395.672,1147.42L395.672,1198.77Z" style="fill:rgb(127,120,210);fill-rule:nonzero;"/>
            </g>
        </g>
        <g transform="matrix(1.61,0,0,1,0,0)">
            <g transform="matrix(-0.621118,1.22465e-16,-7.6065e-17,-1,1846.08,2200.44)">
                <path d="M2187.99,1952.37C2180.27,1959.17 2170.46,1962.88 2160.08,1962.88C2148.78,1962.88 2138.16,1958.48 2130.17,1950.49C2113.68,1934 2113.68,1907.17 2130.17,1890.68C2138.16,1882.69 2148.78,1878.29 2160.08,1878.29C2171.38,1878.29 2182,1882.69 2189.99,1890.68L2219.89,1920.59L2222.73,1923.43L2237.71,1938.4C2242.47,1943.16 2248.8,1945.79 2255.53,1945.79C2262.26,1945.79 2268.59,1943.16 2273.35,1938.4C2283.18,1928.58 2283.18,1912.59 2273.35,1902.76C2268.59,1898 2262.26,1895.38 2255.53,1895.38C2248.8,1895.38 2242.47,1898 2237.71,1902.76L2224.15,1916.31L2212.07,1904.23L2225.62,1890.67C2233.61,1882.69 2244.23,1878.29 2255.53,1878.29C2266.83,1878.29 2277.45,1882.69 2285.44,1890.67C2301.93,1907.16 2301.93,1934 2285.44,1950.49C2277.45,1958.48 2266.83,1962.88 2255.53,1962.88C2244.23,1962.88 2233.61,1958.48 2225.62,1950.49L2195.72,1920.58L2192.88,1917.74L2177.9,1902.77C2173.14,1898 2166.81,1895.38 2160.08,1895.38C2153.35,1895.38 2147.02,1898 2142.26,1902.77C2132.43,1912.59 2132.43,1928.58 2142.26,1938.41C2147.02,1943.17 2153.35,1945.79 2160.08,1945.79C2166.72,1945.79 2172.98,1943.24 2177.72,1938.59L2171.56,1934.92L2183.87,1923.27L2205.04,1936.18L2190.25,1950.23L2190.25,1950.23L2189.99,1950.49C2189.37,1951.11 2188.74,1951.7 2188.1,1952.27L2187.99,1952.37L2187.99,1952.37Z" style="fill:url(#_Linear1);"/>
            </g>
        </g>
        <g transform="matrix(1.61,0,0,1,0,0)">
            <g transform="matrix(1,0,0,1,28.0663,-75.2842)">
                <g transform="matrix(0.621118,0,0,1,-811.77,-1314.8)">
                    <path d="M1642.59,1620.02L1674.99,1620.02C1674.99,1620.02 1674.99,1683.36 1674.99,1690.08L1650.06,1690.08C1650.1,1683.32 1650.34,1643.19 1650.34,1643.19L1632.14,1643.19L1642.59,1620.02Z" style="fill:rgb(127,120,210);"/>
                </g>
                <g transform="matrix(0.621118,0,0,1,-879.883,-1479.8)">
                    <path d="M1784.11,1864.42C1780.5,1896.02 1759,1925.15 1715.74,1925.15C1668.5,1925.15 1646.63,1891.19 1646.63,1855.85C1646.63,1821 1668.65,1785.99 1713.83,1785.04C1714.43,1785.02 1741.4,1785.02 1742.01,1785.02L1731.31,1808.19C1730.69,1808.19 1714.41,1808.04 1713.81,1808.06C1708.97,1808.23 1704.58,1809 1700.63,1810.28C1679.86,1816.99 1671.09,1837.59 1671.57,1856.24C1672.14,1878.32 1684.05,1901.94 1715.74,1901.94C1743.44,1901.94 1756.02,1883.75 1759.01,1864.42L1784.11,1864.42Z" style="fill:url(#_Linear2);"/>
                </g>
            </g>
        </g>
        <g transform="matrix(1.61,0,0,1,0,0)">
            <g transform="matrix(0.621118,0,0,1,-881.404,-1482.47)">
                <path d="M1936.87,1788.61L1999.73,1788.61L1999.73,1804.2L1936.87,1804.2L1936.87,1788.61ZM1936.87,1769.64L1936.87,1754.9L1992.8,1754.89L1992.8,1769.63L1936.87,1769.64ZM1936.87,1735.46L1936.87,1720.09L1999.73,1720.09L1999.73,1735.44L1936.87,1735.46Z" style="fill-rule:nonzero;"/>
            </g>
        </g>
        <g transform="matrix(1.61,0,0,1,0,0)">
            <g transform="matrix(0.621118,0,0,1,-613.007,-1482.47)">
                <path d="M1936.87,1788.61L1999.73,1788.61L1999.73,1804.2L1936.87,1804.2L1936.87,1788.61ZM1936.87,1769.64L1936.87,1754.9L1992.8,1754.89L1992.8,1769.63L1936.87,1769.64ZM1936.87,1735.46L1936.87,1720.09L1999.73,1720.09L1999.73,1735.44L1936.87,1735.46Z" style="fill:rgb(127,120,210);fill-rule:nonzero;"/>
            </g>
        </g>
        <g transform="matrix(1.61,0,0,1,0,0)">
            <g transform="matrix(0.621118,0,0,1,-863.867,-1441.52)">
                <g transform="matrix(30.6667,0,0,30.6667,1832.29,1804.88)">
                    <path d="M0.659,-0L0.791,-0L0.791,-0.699L0.64,-0.699L0.421,-0.398L0.202,-0.699L0.05,-0.699L0.05,-0L0.182,-0L0.182,-0.508L0.405,-0.204L0.431,-0.204L0.659,-0.507L0.659,-0Z" style="fill-rule:nonzero;"/>
                </g>
                <g transform="matrix(30.6667,0,0,30.6667,1860.01,1804.88)">
                    <path d="M0.532,-0.699L0.532,-0.298C0.532,-0.178 0.47,-0.105 0.361,-0.105C0.252,-0.105 0.18,-0.172 0.18,-0.298L0.18,-0.699L0.049,-0.699L0.049,-0.298C0.049,-0.087 0.192,0.015 0.36,0.015C0.536,0.015 0.663,-0.091 0.663,-0.298L0.663,-0.699L0.532,-0.699Z" style="fill-rule:nonzero;"/>
                </g>
                <g transform="matrix(30.6667,0,0,30.6667,1883.96,1804.88)">
                    <path d="M0.049,-0.701L0.049,-0L0.541,-0L0.541,-0.122L0.181,-0.122L0.181,-0.701L0.049,-0.701Z" style="fill-rule:nonzero;"/>
                </g>
                <g transform="matrix(30.6667,0,0,30.6667,1903.07,1804.88)">
                    <path d="M0.23,-0L0.362,-0L0.362,-0.581L0.584,-0.581L0.584,-0.701L0.008,-0.701L0.008,-0.581L0.23,-0.581L0.23,-0Z" style="fill-rule:nonzero;"/>
                </g>
                <g transform="matrix(30.6667,0,0,30.6667,1923.09,1804.88)">
                    <rect x="0.05" y="-0.701" width="0.131" height="0.701" style="fill-rule:nonzero;"/>
                </g>
                <g transform="matrix(30.6667,0,0,30.6667,1932.11,1804.88)">
                    <rect x="0.035" y="-0.382" width="0.369" height="0.112" style="fill-rule:nonzero;"/>
                </g>
                <g transform="matrix(30.6667,0,0,30.6667,1947.32,1804.88)">
                    <path d="M0.181,-0.575L0.379,-0.575C0.547,-0.575 0.548,-0.327 0.379,-0.327L0.181,-0.327L0.181,-0.575ZM0.379,-0.701C0.269,-0.702 0.159,-0.701 0.049,-0.701L0.049,-0L0.181,-0L0.181,-0.206L0.379,-0.206C0.722,-0.206 0.721,-0.701 0.379,-0.701Z" style="fill-rule:nonzero;"/>
                </g>
                <g transform="matrix(30.6667,0,0,30.6667,1969.22,1804.88)">
                    <path d="M0.532,-0.699L0.532,-0.298C0.532,-0.178 0.47,-0.105 0.361,-0.105C0.252,-0.105 0.18,-0.172 0.18,-0.298L0.18,-0.699L0.049,-0.699L0.049,-0.298C0.049,-0.087 0.192,0.015 0.36,0.015C0.536,0.015 0.663,-0.091 0.663,-0.298L0.663,-0.699L0.532,-0.699Z" style="fill-rule:nonzero;"/>
                </g>
                <g transform="matrix(30.6667,0,0,30.6667,1993.17,1804.88)">
                    <path d="M0.67,-0.009L0.458,-0.248C0.591,-0.275 0.635,-0.372 0.635,-0.469C0.635,-0.59 0.548,-0.7 0.383,-0.701C0.272,-0.7 0.161,-0.701 0.05,-0.701L0.05,-0L0.182,-0L0.182,-0.234L0.309,-0.234L0.513,-0L0.67,-0L0.67,-0.009ZM0.383,-0.578C0.466,-0.578 0.503,-0.522 0.503,-0.465C0.503,-0.409 0.467,-0.353 0.383,-0.353L0.182,-0.353L0.182,-0.578L0.383,-0.578Z" style="fill-rule:nonzero;"/>
                </g>
                <g transform="matrix(30.6667,0,0,30.6667,2015.03,1804.88)">
                    <path d="M0.181,-0.575L0.379,-0.575C0.547,-0.575 0.548,-0.327 0.379,-0.327L0.181,-0.327L0.181,-0.575ZM0.379,-0.701C0.269,-0.702 0.159,-0.701 0.049,-0.701L0.049,-0L0.181,-0L0.181,-0.206L0.379,-0.206C0.722,-0.206 0.721,-0.701 0.379,-0.701Z" style="fill-rule:nonzero;"/>
                </g>
                <g transform="matrix(30.6667,0,0,30.6667,2036.93,1804.88)">
                    <path d="M0.378,-0.714C0.136,-0.714 0.018,-0.529 0.018,-0.345C0.018,-0.161 0.132,0.016 0.378,0.016C0.624,0.016 0.735,-0.165 0.737,-0.346C0.739,-0.529 0.619,-0.714 0.378,-0.714ZM0.378,-0.594C0.543,-0.594 0.609,-0.462 0.607,-0.344C0.605,-0.229 0.543,-0.105 0.378,-0.105C0.213,-0.105 0.151,-0.228 0.148,-0.343C0.145,-0.461 0.213,-0.594 0.378,-0.594Z" style="fill-rule:nonzero;"/>
                </g>
                <g transform="matrix(30.6667,0,0,30.6667,2062.17,1804.88)">
                    <path d="M0.586,-0.585C0.533,-0.693 0.42,-0.724 0.311,-0.724C0.182,-0.723 0.04,-0.664 0.04,-0.52C0.04,-0.363 0.172,-0.325 0.315,-0.308C0.408,-0.298 0.477,-0.271 0.477,-0.205C0.477,-0.129 0.399,-0.1 0.316,-0.1C0.231,-0.1 0.15,-0.134 0.119,-0.211L0.009,-0.154C0.061,-0.026 0.171,0.018 0.314,0.018C0.47,0.018 0.608,-0.049 0.608,-0.205C0.608,-0.372 0.472,-0.41 0.326,-0.428C0.242,-0.438 0.17,-0.455 0.17,-0.516C0.17,-0.568 0.217,-0.609 0.315,-0.609C0.391,-0.609 0.457,-0.571 0.481,-0.531L0.586,-0.585Z" style="fill-rule:nonzero;"/>
                </g>
                <g transform="matrix(30.6667,0,0,30.6667,2083.6,1804.88)">
                    <path d="M0.571,-0.13L0.178,-0.13L0.178,-0.288L0.557,-0.288L0.557,-0.411L0.178,-0.411L0.178,-0.573L0.571,-0.573L0.571,-0.701L0.047,-0.701L0.047,-0L0.571,-0L0.571,-0.13Z" style="fill-rule:nonzero;"/>
                </g>
                <g transform="matrix(30.6667,0,0,30.6667,2111.27,1804.88)">
                    <path d="M0.611,-0.701L0.447,-0.701L0.181,-0.405L0.181,-0.701L0.049,-0.701L0.049,-0L0.181,-0L0.181,-0.31L0.474,-0L0.637,-0L0.637,-0.008L0.3,-0.362L0.611,-0.697L0.611,-0.701Z" style="fill-rule:nonzero;"/>
                </g>
                <g transform="matrix(30.6667,0,0,30.6667,2132.52,1804.88)">
                    <rect x="0.05" y="-0.701" width="0.131" height="0.701" style="fill-rule:nonzero;"/>
                </g>
                <g transform="matrix(30.6667,0,0,30.6667,2141.53,1804.88)">
                    <path d="M0.67,-0.009L0.458,-0.248C0.591,-0.275 0.635,-0.372 0.635,-0.469C0.635,-0.59 0.548,-0.7 0.383,-0.701C0.272,-0.7 0.161,-0.701 0.05,-0.701L0.05,-0L0.182,-0L0.182,-0.234L0.309,-0.234L0.513,-0L0.67,-0L0.67,-0.009ZM0.383,-0.578C0.466,-0.578 0.503,-0.522 0.503,-0.465C0.503,-0.409 0.467,-0.353 0.383,-0.353L0.182,-0.353L0.182,-0.578L0.383,-0.578Z" style="fill-rule:nonzero;"/>
                </g>
                <g transform="matrix(30.6667,0,0,30.6667,2163.4,1804.88)">
                    <path d="M0.175,-0.303L0.377,-0.303C0.431,-0.303 0.508,-0.27 0.508,-0.207C0.508,-0.141 0.431,-0.123 0.377,-0.123L0.175,-0.123L0.175,-0.303ZM0.175,-0.581L0.377,-0.581C0.461,-0.581 0.487,-0.527 0.487,-0.494C0.487,-0.454 0.46,-0.419 0.377,-0.419L0.175,-0.419L0.175,-0.581ZM0.377,-0.701L0.045,-0.701L0.045,-0L0.377,-0C0.522,-0 0.639,-0.05 0.639,-0.206C0.639,-0.25 0.609,-0.337 0.527,-0.362C0.592,-0.391 0.618,-0.443 0.618,-0.497C0.618,-0.639 0.515,-0.701 0.377,-0.701Z" style="fill-rule:nonzero;"/>
                </g>
                <g transform="matrix(30.6667,0,0,30.6667,2185.51,1804.88)">
                    <path d="M0.166,-0.701L0.009,-0.701L0.009,-0.695L0.278,-0.289L0.278,-0L0.41,-0L0.41,-0.289L0.689,-0.695L0.689,-0.701L0.53,-0.701L0.344,-0.412L0.166,-0.701Z" style="fill-rule:nonzero;"/>
                </g>
                <g transform="matrix(30.6667,0,0,30.6667,2215.44,1804.88)">
                    <path d="M0.576,-0.179C0.53,-0.133 0.461,-0.108 0.4,-0.108C0.227,-0.108 0.16,-0.229 0.159,-0.345C0.158,-0.462 0.231,-0.588 0.4,-0.588C0.461,-0.588 0.523,-0.567 0.569,-0.522L0.657,-0.607C0.585,-0.678 0.495,-0.714 0.4,-0.714C0.147,-0.714 0.028,-0.528 0.029,-0.345C0.03,-0.163 0.14,0.016 0.4,0.016C0.501,0.016 0.594,-0.017 0.666,-0.088L0.576,-0.179Z" style="fill-rule:nonzero;"/>
                </g>
                <g transform="matrix(30.6667,0,0,30.6667,2236.85,1804.88)">
                    <path d="M0.659,-0L0.791,-0L0.791,-0.699L0.64,-0.699L0.421,-0.398L0.202,-0.699L0.05,-0.699L0.05,-0L0.182,-0L0.182,-0.508L0.405,-0.204L0.431,-0.204L0.659,-0.507L0.659,-0Z" style="fill-rule:nonzero;"/>
                </g>
                <g transform="matrix(30.6667,0,0,30.6667,2264.57,1804.88)">
                    <path d="M0.586,-0.585C0.533,-0.693 0.42,-0.724 0.311,-0.724C0.182,-0.723 0.04,-0.664 0.04,-0.52C0.04,-0.363 0.172,-0.325 0.315,-0.308C0.408,-0.298 0.477,-0.271 0.477,-0.205C0.477,-0.129 0.399,-0.1 0.316,-0.1C0.231,-0.1 0.15,-0.134 0.119,-0.211L0.009,-0.154C0.061,-0.026 0.171,0.018 0.314,0.018C0.47,0.018 0.608,-0.049 0.608,-0.205C0.608,-0.372 0.472,-0.41 0.326,-0.428C0.242,-0.438 0.17,-0.455 0.17,-0.516C0.17,-0.568 0.217,-0.609 0.315,-0.609C0.391,-0.609 0.457,-0.571 0.481,-0.531L0.586,-0.585Z" style="fill-rule:nonzero;"/>
                </g>
                <g transform="matrix(30.6667,0,0,30.6667,2293.36,1804.88)">
                    <path d="M0.23,-0L0.362,-0L0.362,-0.581L0.584,-0.581L0.584,-0.701L0.008,-0.701L0.008,-0.581L0.23,-0.581L0.23,-0Z" style="fill-rule:nonzero;"/>
                </g>
                <g transform="matrix(30.6667,0,0,30.6667,2313.39,1804.88)">
                    <path d="M0.657,-0L0.657,-0.699L0.526,-0.699L0.526,-0.404L0.182,-0.404L0.182,-0.699L0.05,-0.699L0.05,-0L0.182,-0L0.182,-0.282L0.526,-0.282L0.526,-0L0.657,-0Z" style="fill-rule:nonzero;"/>
                </g>
                <g transform="matrix(30.6667,0,0,30.6667,2337,1804.88)">
                    <path d="M0.571,-0.13L0.178,-0.13L0.178,-0.288L0.557,-0.288L0.557,-0.411L0.178,-0.411L0.178,-0.573L0.571,-0.573L0.571,-0.701L0.047,-0.701L0.047,-0L0.571,-0L0.571,-0.13Z" style="fill-rule:nonzero;"/>
                </g>
                <g transform="matrix(30.6667,0,0,30.6667,2357.3,1804.88)">
                    <path d="M0.659,-0L0.791,-0L0.791,-0.699L0.64,-0.699L0.421,-0.398L0.202,-0.699L0.05,-0.699L0.05,-0L0.182,-0L0.182,-0.508L0.405,-0.204L0.431,-0.204L0.659,-0.507L0.659,-0Z" style="fill-rule:nonzero;"/>
                </g>
                <g transform="matrix(30.6667,0,0,30.6667,2385.03,1804.88)">
                    <path d="M0.571,-0.13L0.178,-0.13L0.178,-0.288L0.557,-0.288L0.557,-0.411L0.178,-0.411L0.178,-0.573L0.571,-0.573L0.571,-0.701L0.047,-0.701L0.047,-0L0.571,-0L0.571,-0.13Z" style="fill-rule:nonzero;"/>
                </g>
            </g>
        </g>
    </g>
    <defs>
        <linearGradient id="_Linear1" x1="0" y1="0" x2="1" y2="0" gradientUnits="userSpaceOnUse" gradientTransform="matrix(180,0,0,84.5952,2117.8,1920.58)"><stop offset="0" style="stop-color:rgb(127,120,210);stop-opacity:1"/><stop offset="1" style="stop-color:rgb(26,26,26);stop-opacity:1"/></linearGradient>
        <linearGradient id="_Linear2" x1="0" y1="0" x2="1" y2="0" gradientUnits="userSpaceOnUse" gradientTransform="matrix(137.48,0,0,140.136,1646.63,1855.08)"><stop offset="0" style="stop-color:rgb(26,26,26);stop-opacity:1"/><stop offset="1" style="stop-color:rgb(127,120,210);stop-opacity:1"/></linearGradient>
    </defs>
</svg>
