<svg xmlns="http://www.w3.org/2000/svg" version="1.1" xmlns:xlink="http://www.w3.org/1999/xlink" width="1440" height="560" preserveAspectRatio="none" viewBox="0 0 1440 560"><g mask="url(&quot;#SvgjsMask1036&quot;)" fill="none"><rect width="1440" height="560" x="0" y="0" fill="rgba(33, 33, 33, 1)"></rect><path d="M0,623.817C114.517,608.179,209.038,539.046,305.762,475.775C401.7,413.018,508.035,357.833,561.581,256.465C616.504,152.492,623.331,29.114,602.871,-86.68C582.81,-200.214,527.736,-304.946,447.717,-387.949C370.279,-468.274,269.223,-521.8,160.26,-545.796C55.914,-568.775,-46.91,-534.881,-152.74,-520.183C-278.909,-502.66,-422.888,-532.778,-520.733,-451.218C-620.867,-367.75,-649.12,-224.925,-662.516,-95.255C-675.566,31.065,-647.519,156.107,-595.44,271.929C-543.133,388.258,-474.399,502.424,-364.593,567.317C-256.529,631.18,-124.37,640.801,0,623.817" fill="#161616"></path><path d="M1440 1208.278C1562.919 1229.5030000000002 1697.887 1189.993 1793.027 1109.321 1884.6390000000001 1031.6399999999999 1888.001 896.635 1936.912 786.932 1985.26 678.491 2100.556 584.879 2078.895 468.141 2057.181 351.118 1919.635 300.821 1831.809 220.495 1755.321 150.539 1688.3899999999999 74.94900000000001 1596.516 26.956999999999994 1487.273-30.107999999999947 1369.102-118.89599999999996 1251.268-82.76099999999997 1133.34-46.59699999999998 1108.195 109.28300000000002 1026.55 201.743 943.835 295.414 796.245 341.575 768.893 463.509 741.476 585.734 816.306 709.838 889.825 811.256 955.178 901.4100000000001 1067.202 934.424 1157.497 999.5830000000001 1254.397 1069.509 1322.247 1187.9450000000002 1440 1208.278" fill="#2d2d2d"></path></g><defs><mask id="SvgjsMask1036"><rect width="1440" height="560" fill="#ffffff"></rect></mask></defs></svg>